<svg width="26" height="29" viewBox="0 0 26 29" fill="none" xmlns="http://www.w3.org/2000/svg">
<path d="M2.47363 12.7679C1.51705 13.3202 1.1893 14.5434 1.74158 15.5C2.29387 16.4566 3.51705 16.7843 4.47363 16.2321L2.47363 12.7679ZM23.5262 5.23205C24.4828 4.67977 24.8105 3.45659 24.2582 2.5C23.706 1.54341 22.4828 1.21566 21.5262 1.76795L23.5262 5.23205ZM4.47363 16.2321L23.5262 5.23205L21.5262 1.76795L2.47363 12.7679L4.47363 16.2321Z" fill="black"/>
<path d="M4.47363 12.7679C3.51705 12.2157 2.29387 12.5434 1.74158 13.5C1.1893 14.4566 1.51705 15.6798 2.47363 16.2321L4.47363 12.7679ZM21.5262 27.2321C22.4828 27.7843 23.706 27.4566 24.2582 26.5C24.8105 25.5434 24.4828 24.3202 23.5262 23.7679L21.5262 27.2321ZM2.47363 16.2321L21.5262 27.2321L23.5262 23.7679L4.47363 12.7679L2.47363 16.2321Z" fill="black"/>
</svg>
