<svg width="29" height="18" viewBox="0 0 29 18" fill="none" xmlns="http://www.w3.org/2000/svg">
<path d="M12.9559 12.7965C12.1712 13.5739 12.1653 14.8402 12.9427 15.6249C13.7201 16.4096 14.9864 16.4155 15.7711 15.6381L12.9559 12.7965ZM27.0934 4.42085C27.8781 3.64346 27.884 2.37714 27.1066 1.59246C26.3292 0.807777 25.0629 0.801873 24.2782 1.57927L27.0934 4.42085ZM15.7711 15.6381L27.0934 4.42085L24.2782 1.57927L12.9559 12.7965L15.7711 15.6381Z" fill="black"/>
<path d="M15.7299 12.9717C16.5146 13.7491 16.5205 15.0154 15.7431 15.8001C14.9657 16.5847 13.6993 16.5906 12.9147 15.8132L15.7299 12.9717ZM1.59236 4.59602C0.80768 3.81862 0.801777 2.55231 1.57918 1.76763C2.35657 0.982946 3.62289 0.977042 4.40757 1.75444L1.59236 4.59602ZM12.9147 15.8132L1.59236 4.59602L4.40757 1.75444L15.7299 12.9717L12.9147 15.8132Z" fill="black"/>
</svg>
