<svg width="66" height="157" viewBox="0 0 66 157" fill="none" xmlns="http://www.w3.org/2000/svg">
<path d="M15.0016 37.9971C10.4455 38.0934 1.00001 35.8056 1 25.8715C0.999994 20.9207 5.99322 16.9216 11.3345 16.9216C10.5567 11.9173 12.468 1.7356 26.3363 1.0427C40.2045 0.34981 43.6716 8.26036 43.6716 12.3022M35.6707 16.9216C35.6707 11.1047 53.6654 7.88623 53.6654 23.2304C59.6661 22.3643 65 23.4791 65 30.448C65 34.4899 61.3329 37.9971 57.6732 37.9971C55.2581 37.9971 50.3316 37.9971 48.0054 37.9971M37.3375 37.9971H26.3363" stroke="black" stroke-width="2" stroke-linecap="round" stroke-linejoin="round"/>
<line x1="1" y1="-1" x2="5.62774" y2="-1" transform="matrix(0.502894 -0.864348 0.918773 0.394785 17.6708 43.1255)" stroke="black" stroke-width="2" stroke-linecap="round"/>
<line x1="1" y1="-1" x2="5.62774" y2="-1" transform="matrix(0.502894 -0.864348 0.918773 0.394785 27.0033 43.6985)" stroke="black" stroke-width="2" stroke-linecap="round"/>
<line x1="1" y1="-1" x2="10.4384" y2="-1" transform="matrix(0.524504 -0.851408 0.910223 0.414118 38.3356 47.7085)" stroke="black" stroke-width="2" stroke-linecap="round"/>
<line x1="1" y1="-1" x2="10.4384" y2="-1" transform="matrix(0.524504 -0.851408 0.910223 0.414118 51 54.7388)" stroke="black" stroke-width="2" stroke-linecap="round"/>
<line x1="1" y1="-1" x2="2.97664" y2="-1" transform="matrix(0.502894 -0.864348 0.918773 0.394785 15.0043 49.4272)" stroke="black" stroke-width="2" stroke-linecap="round"/>
<line x1="9.59297" y1="58.0829" x2="12.6456" y2="52.407" stroke="black" stroke-width="2" stroke-linecap="round"/>
<line x1="1" y1="-1" x2="5.62774" y2="-1" transform="matrix(0.502894 -0.864348 0.918773 0.394785 31.0029 45.417)" stroke="black" stroke-width="2" stroke-linecap="round"/>
<line x1="1" y1="-1" x2="4.30219" y2="-1" transform="matrix(0.502894 -0.864348 0.918773 0.394785 22.337 50)" stroke="black" stroke-width="2" stroke-linecap="round"/>
<line x1="1" y1="-1" x2="4.30219" y2="-1" transform="matrix(0.502894 -0.864348 0.918773 0.394785 37 55.583)" stroke="black" stroke-width="2" stroke-linecap="round"/>
<path d="M35.5259 78.1195C35.0396 78.3814 34.8577 78.9878 35.1195 79.4741C35.3814 79.9604 35.9878 80.1423 36.4741 79.8805L35.5259 78.1195ZM42.5 75.5L42.9741 76.3805C43.4145 76.1433 43.612 75.6172 43.4363 75.1489L42.5 75.5ZM38.5 88L37.8598 87.2318L37.4876 87.5419L37.5003 88.0262L38.5 88ZM30.4216 113.682L31.4207 113.641C31.3986 113.105 30.9578 112.682 30.4216 112.682V113.682ZM15 81L14.7999 80.0202C14.3894 80.1041 14.0747 80.4349 14.0115 80.849L15 81ZM22.5433 80.4799C23.0844 80.3694 23.4335 79.8411 23.3229 79.3C23.2124 78.7589 22.6842 78.4099 22.1431 78.5204L22.5433 80.4799ZM50.5 78L51.1402 78.7682C51.5006 78.4679 51.6038 77.9573 51.3882 77.5406L50.5 78ZM41 71.5L41.9363 71.1489L41.9065 71.0694L41.8638 70.9961L41 71.5ZM21 89.5L21.9997 89.5263C22.0134 89.0043 21.6231 88.5596 21.1038 88.5054C20.5844 88.4512 20.1108 88.8057 20.0165 89.3193L21 89.5ZM28.4412 113.682V112.682C27.9026 112.682 27.4607 113.109 27.4418 113.647L28.4412 113.682ZM17.703 107.027L16.7765 106.651L17.703 107.027ZM17.9105 106.316L16.927 106.135L17.9105 106.316ZM20.4753 153.121L21.2313 152.467L20.4753 153.121ZM37.5832 154.608L37.0567 153.758L37.5832 154.608ZM37.81 154.468L38.3365 155.318L37.81 154.468ZM40.132 150.167L39.1323 150.193L40.132 150.167ZM42.4203 63.0491L43.0342 62.2597L42.4203 63.0491ZM43.3374 64.1524L44.2256 63.6929L43.3374 64.1524ZM20.812 153.51L20.0559 154.165L20.812 153.51ZM31.9755 151.219L30.9763 151.261L31.9755 151.219ZM38.0612 66.462L38.925 65.9582L38.0612 66.462ZM36.4741 79.8805L42.9741 76.3805L42.0259 74.6195L35.5259 78.1195L36.4741 79.8805ZM41.4195 63.5376L41.8063 63.8384L43.0342 62.2597L42.6474 61.9589L41.4195 63.5376ZM15.2001 81.9798L22.5433 80.4799L22.1431 78.5204L14.7999 80.0202L15.2001 81.9798ZM42.4492 64.6118L49.6118 78.4594L51.3882 77.5406L44.2256 63.6929L42.4492 64.6118ZM43.4363 75.1489L41.9363 71.1489L40.0637 71.8511L41.5637 75.8511L43.4363 75.1489ZM41.8638 70.9961L38.925 65.9582L37.1974 66.9659L40.1362 72.0039L41.8638 70.9961ZM21.568 152.856L21.2313 152.467L19.7193 153.776L20.0559 154.165L21.568 152.856ZM30.4216 112.682H28.4412V114.682H30.4216V112.682ZM37.2835 153.617L37.0567 153.758L38.1097 155.458L38.3365 155.318L37.2835 153.617ZM16.7765 106.651L16.4956 107.342L18.3486 108.095L18.6295 107.404L16.7765 106.651ZM49.8598 77.2318L37.8598 87.2318L39.1402 88.7682L51.1402 78.7682L49.8598 77.2318ZM27.4418 113.647L26.12 151.249L28.1188 151.32L29.4406 113.717L27.4418 113.647ZM32.9746 151.178L31.4207 113.641L29.4225 113.723L30.9763 151.261L32.9746 151.178ZM20.0165 89.3193L16.927 106.135L18.894 106.496L21.9835 89.6807L20.0165 89.3193ZM12.1691 106.151L15.9885 81.151L14.0115 80.849L10.1921 105.849L12.1691 106.151ZM20.4071 150.164L21.9997 89.5263L20.0003 89.4737L18.4078 150.111L20.4071 150.164ZM37.5003 88.0262L39.1323 150.193L41.1316 150.14L39.4997 87.9738L37.5003 88.0262ZM16.4956 107.342C15.799 109.058 13.4485 109.253 12.4783 107.676L10.775 108.725C12.6041 111.697 17.0353 111.328 18.3486 108.095L16.4956 107.342ZM12.4783 107.676C12.1979 107.221 12.0883 106.68 12.1691 106.151L10.1921 105.849C10.0397 106.846 10.2463 107.865 10.775 108.725L12.4783 107.676ZM18.6295 107.404C18.7483 107.111 18.837 106.807 18.894 106.496L16.927 106.135C16.8945 106.312 16.8441 106.484 16.7765 106.651L18.6295 107.404ZM21.2313 152.467C20.6789 151.829 20.3849 151.007 20.4071 150.164L18.4078 150.111C18.3725 151.453 18.8403 152.761 19.7193 153.776L21.2313 152.467ZM37.0567 153.758C36.5749 154.056 35.9981 154.161 35.442 154.052L35.0574 156.015C36.1087 156.221 37.199 156.022 38.1097 155.458L37.0567 153.758ZM24.8728 155.55C26.7464 154.977 28.05 153.278 28.1188 151.32L26.12 151.249C26.0812 152.355 25.3452 153.314 24.2874 153.638L24.8728 155.55ZM38.3365 155.318C40.1225 154.212 41.1867 152.24 41.1316 150.14L39.1323 150.193C39.1688 151.582 38.4648 152.886 37.2835 153.617L38.3365 155.318ZM41.8063 63.8384C42.074 64.0467 42.2934 64.3105 42.4492 64.6118L44.2256 63.6929C43.9369 63.1346 43.5304 62.6456 43.0342 62.2597L41.8063 63.8384ZM38.6831 64.5831C38.9132 63.3176 40.4042 62.7479 41.4195 63.5376L42.6474 61.9589C40.4464 60.247 37.2142 61.4819 36.7154 64.2253L38.6831 64.5831ZM24.2874 153.638C23.306 153.938 22.2398 153.632 21.568 152.856L20.0559 154.165C21.2459 155.539 23.1344 156.082 24.8728 155.55L24.2874 153.638ZM35.442 154.052C34.0536 153.78 33.0331 152.592 32.9746 151.178L30.9763 151.261C31.0731 153.599 32.761 155.565 35.0574 156.015L35.442 154.052ZM36.7154 64.2253C36.5441 65.1671 36.7151 66.1391 37.1974 66.9659L38.925 65.9582C38.683 65.5433 38.5972 65.0556 38.6831 64.5831L36.7154 64.2253Z" fill="black"/>
<circle cx="28.5" cy="67.5" r="7.5" stroke="black" stroke-width="2"/>
</svg>
