<svg width="326" height="305" viewBox="0 0 326 305" fill="none" xmlns="http://www.w3.org/2000/svg">
<path d="M67.1434 170.269C66.4633 170.742 66.2956 171.677 66.7686 172.357C67.2417 173.037 68.1765 173.204 68.8566 172.731L67.1434 170.269ZM79.5 163.5L80.3566 164.731L80.4362 164.676L80.508 164.611L79.5 163.5ZM77 188.5L75.9172 187.462L75.5 187.897V188.5H77ZM77 216.5H75.5V216.77L75.5942 217.023L77 216.5ZM62.5 229L63.8547 228.356L63.4478 227.5H62.5V229ZM42 218L43.3893 218.565L43.525 218.232L43.4946 217.873L42 218ZM37 164.5L35.815 165.42L35.9036 165.534L36.0122 165.629L37 164.5ZM44.0122 172.629C44.6357 173.174 45.5833 173.111 46.1289 172.488C46.6744 171.864 46.6112 170.917 45.9878 170.371L44.0122 172.629ZM106 158.25L107.083 159.288L107.397 158.96L107.477 158.514L106 158.25ZM93 151.25L94.008 152.361L94.3837 152.02L94.4753 151.521L93 151.25ZM24 147.75L22.5004 147.714L22.4877 148.248L22.815 148.67L24 147.75ZM13.5 156.5L12.0193 156.74L12.0834 157.135L12.3358 157.446L13.5 156.5ZM39.5 188.5L40.9946 188.373L40.9556 187.913L40.6642 187.554L39.5 188.5ZM24.5 261L23.1107 260.435L23.0555 260.57L23.0276 260.714L24.5 261ZM39.5 265.5L38.1262 264.898L38.044 265.085L38.0151 265.288L39.5 265.5ZM77 259.5L78.4643 259.175L78.4275 259.009L78.3547 258.856L77 259.5ZM93 259.5L94.4596 259.154L94.4382 259.064L94.4058 258.977L93 259.5ZM55.5 229V227.5H54.5197L54.1262 228.398L55.5 229ZM91.4544 302.454L92.07 301.087L91.4544 302.454ZM35.3244 294.729L36.8093 294.941L35.3244 294.729ZM28.8446 301.914L28.4808 300.459L28.8446 301.914ZM84.916 295.122L83.4518 295.448L84.916 295.122ZM90.5567 302.051L91.1722 300.683L91.1722 300.683L90.5567 302.051ZM109.029 127.491L110.25 126.619L109.029 127.491ZM101.024 293.379L102.484 293.033L101.024 293.379ZM28.7056 301.949L29.0694 303.404L28.7056 301.949ZM96.7808 130.666L95.3055 130.395L96.7808 130.666ZM68.8566 172.731L80.3566 164.731L78.6434 162.269L67.1434 170.269L68.8566 172.731ZM107.808 128.362L107.925 128.525L110.366 126.781L110.25 126.619L107.808 128.362ZM36.0122 165.629L44.0122 172.629L45.9878 170.371L37.9878 163.371L36.0122 165.629ZM108.962 133.128L104.523 157.986L107.477 158.514L111.916 133.655L108.962 133.128ZM80.508 164.611L94.008 152.361L91.992 150.139L78.492 162.389L80.508 164.611ZM94.4753 151.521L98.2561 130.937L95.3055 130.395L91.5247 150.979L94.4753 151.521ZM22.9211 130.048L22.5004 147.714L25.4996 147.786L25.9202 130.119L22.9211 130.048ZM22.815 148.67L35.815 165.42L38.185 163.58L25.185 146.83L22.815 148.67ZM14.9807 156.26L11.0582 132.071L8.0969 132.552L12.0193 156.74L14.9807 156.26ZM19.9047 292.492L25.9724 261.286L23.0276 260.714L16.9599 291.919L19.9047 292.492ZM25.8893 261.565L43.3893 218.565L40.6107 217.435L23.1107 260.435L25.8893 261.565ZM38.0151 265.288L33.8395 294.517L36.8093 294.941L40.9849 265.712L38.0151 265.288ZM28.4808 300.459L28.3417 300.493L29.0694 303.404L29.2084 303.369L28.4808 300.459ZM86.3803 294.797L78.4643 259.175L75.5357 259.825L83.4518 295.448L86.3803 294.797ZM78.3547 258.856L63.8547 228.356L61.1453 229.644L75.6453 260.144L78.3547 258.856ZM75.5942 217.023L91.5942 260.023L94.4058 258.977L78.4058 215.977L75.5942 217.023ZM91.5404 259.846L99.5644 293.725L102.484 293.033L94.4596 259.154L91.5404 259.846ZM62.5 227.5H55.5V230.5H62.5V227.5ZM54.1262 228.398L38.1262 264.898L40.8738 266.102L56.8738 229.602L54.1262 228.398ZM92.07 301.087L91.1722 300.683L89.9411 303.418L90.8389 303.822L92.07 301.087ZM12.4622 126.938L12.9818 126.315L10.6771 124.394L10.1575 125.018L12.4622 126.938ZM43.4946 217.873L40.9946 188.373L38.0054 188.627L40.5054 218.127L43.4946 217.873ZM75.5 188.5V216.5H78.5V188.5H75.5ZM40.6642 187.554L14.6642 155.554L12.3358 157.446L38.3358 189.446L40.6642 187.554ZM104.917 157.212L75.9172 187.462L78.0828 189.538L107.083 159.288L104.917 157.212ZM12.9818 126.315C15.0034 123.889 18.6262 123.604 21.0028 125.683L22.9783 123.425C19.3335 120.236 13.7776 120.674 10.6771 124.394L12.9818 126.315ZM98.1051 299.739C96.6151 301.478 94.1578 302.026 92.07 301.087L90.8389 303.822C94.1406 305.308 98.0266 304.441 100.383 301.692L98.1051 299.739ZM16.9599 291.919C16.2806 295.412 17.5303 299.002 20.2324 301.318L22.1848 299.04C20.3022 297.426 19.4315 294.926 19.9047 292.492L16.9599 291.919ZM33.8395 294.517C33.4272 297.403 31.3088 299.752 28.4808 300.459L29.2084 303.369C33.2198 302.366 36.2246 299.035 36.8093 294.941L33.8395 294.517ZM107.925 128.525C108.876 129.857 109.25 131.516 108.962 133.128L111.916 133.655C112.345 131.249 111.787 128.771 110.366 126.781L107.925 128.525ZM83.4518 295.448C84.2366 298.979 86.6419 301.934 89.9411 303.418L91.1722 300.683C88.736 299.586 86.9599 297.405 86.3803 294.797L83.4518 295.448ZM25.9202 130.119C25.9811 127.562 24.9033 125.11 22.9783 123.425L21.0028 125.683C22.258 126.781 22.9608 128.38 22.9211 130.048L25.9202 130.119ZM101.752 126.621C103.93 125.724 106.439 126.446 107.808 128.362L110.25 126.619C108.07 123.568 104.077 122.42 100.61 123.847L101.752 126.621ZM99.5644 293.725C100.067 295.848 99.5248 298.083 98.1051 299.739L100.383 301.692C102.427 299.307 103.207 296.089 102.484 293.033L99.5644 293.725ZM28.3417 300.493C26.1752 301.035 23.8804 300.493 22.1848 299.04L20.2324 301.318C22.6661 303.404 25.9597 304.181 29.0694 303.404L28.3417 300.493ZM11.0582 132.071C10.7609 130.238 11.273 128.365 12.4622 126.938L10.1575 125.018C8.41217 127.112 7.66049 129.861 8.0969 132.552L11.0582 132.071ZM100.61 123.847C97.844 124.986 95.8459 127.452 95.3055 130.395L98.2561 130.937C98.6123 128.997 99.9292 127.372 101.752 126.621L100.61 123.847Z" fill="black"/>
<circle cx="58" cy="148" r="13.5" stroke="black" stroke-width="3"/>
<path d="M303.5 219L302.024 218.733L302.008 218.819L302.003 218.906L303.5 219ZM286.5 237L287.994 236.864L287.87 235.5H286.5V237ZM270.5 219L271.855 219.644L271.941 219.461L271.977 219.263L270.5 219ZM273.5 171.5L274.126 172.863L274.307 172.78L274.46 172.652L273.5 171.5ZM280.46 167.652C281.097 167.122 281.183 166.176 280.652 165.54C280.122 164.903 279.176 164.817 278.54 165.348L280.46 167.652ZM260 189.5L260.316 190.966L260.447 190.938L260.571 190.887L260 189.5ZM277 182.5L278.477 182.763C278.573 182.224 278.367 181.675 277.941 181.332C277.515 180.988 276.935 180.905 276.429 181.113L277 182.5ZM251.5 259L250.145 258.356L250.061 258.534L250.025 258.728L251.5 259ZM265.5 261.5L264.244 260.68L264.095 260.907L264.036 261.173L265.5 261.5ZM288.5 259L287.006 259.136L287.022 259.312L287.079 259.48L288.5 259ZM301 259L299.503 258.906L299.482 259.238L299.603 259.547L301 259ZM281.5 237V235.5H280.688L280.244 236.18L281.5 237ZM254.036 180.229L254.383 181.688L254.036 180.229ZM245.23 293.036L243.755 292.765L245.23 293.036ZM248.323 300.277L247.347 301.416L248.323 300.277ZM257.51 297.222L258.973 297.549L257.51 297.222ZM235.701 194.741L236.017 196.207L235.701 194.741ZM299.729 292.238L298.308 292.719L299.729 292.238ZM304.621 297.629L304.005 298.997L304.621 297.629ZM313.454 290.828L312.058 291.375L313.454 290.828ZM274.46 172.652L280.46 167.652L278.54 165.348L272.54 170.348L274.46 172.652ZM259.684 188.034L235.385 193.275L236.017 196.207L260.316 190.966L259.684 188.034ZM246.705 293.308L252.975 259.272L250.025 258.728L243.755 292.765L246.705 293.308ZM252.855 259.644L271.855 219.644L269.145 218.356L250.145 258.356L252.855 259.644ZM264.036 261.173L256.046 296.894L258.973 297.549L266.964 261.827L264.036 261.173ZM249.299 299.138L248.536 298.484L246.584 300.762L247.347 301.416L249.299 299.138ZM301.15 291.758L289.921 258.52L287.079 259.48L298.308 292.719L301.15 291.758ZM289.994 258.864L287.994 236.864L285.006 237.136L287.006 259.136L289.994 258.864ZM302.003 218.906L299.503 258.906L302.497 259.094L304.997 219.094L302.003 218.906ZM299.603 259.547L312.058 291.375L314.851 290.281L302.397 258.453L299.603 259.547ZM286.5 235.5H281.5V238.5H286.5V235.5ZM280.244 236.18L264.244 260.68L266.756 262.32L282.756 237.82L280.244 236.18ZM307.095 297.098L305.236 296.261L304.005 298.997L305.864 299.834L307.095 297.098ZM233.864 186.562L254.383 181.688L253.689 178.77L233.171 183.643L233.864 186.562ZM271.977 219.263L278.477 182.763L275.523 182.237L269.023 218.737L271.977 219.263ZM309.524 177.233L302.024 218.733L304.976 219.267L312.476 177.767L309.524 177.233ZM276.429 181.113L259.429 188.113L260.571 190.887L277.571 183.887L276.429 181.113ZM256.527 180.949L274.126 172.863L272.874 170.137L255.274 178.223L256.527 180.949ZM233.725 193.223C230.308 192.259 230.41 187.382 233.864 186.562L233.171 183.643C226.707 185.178 226.516 194.307 232.91 196.11L233.725 193.223ZM311.875 295.396C310.996 297.153 308.887 297.904 307.095 297.098L305.864 299.834C309.124 301.301 312.96 299.934 314.558 296.737L311.875 295.396ZM254.383 181.688C255.12 181.513 255.838 181.266 256.527 180.949L255.274 178.223C254.765 178.457 254.234 178.64 253.689 178.77L254.383 181.688ZM243.755 292.765C243.206 295.744 244.284 298.79 246.584 300.762L248.536 298.484C247.048 297.208 246.35 295.236 246.705 293.308L243.755 292.765ZM254.225 299.488C252.685 300.468 250.685 300.326 249.299 299.138L247.347 301.416C249.735 303.463 253.182 303.708 255.836 302.019L254.225 299.488ZM256.046 296.894C255.806 297.966 255.151 298.898 254.225 299.488L255.836 302.019C257.432 301.003 258.56 299.396 258.973 297.549L256.046 296.894ZM235.385 193.275C234.835 193.393 234.266 193.375 233.725 193.223L232.91 196.11C233.923 196.396 234.989 196.429 236.017 196.207L235.385 193.275ZM298.308 292.719C299.252 295.512 301.316 297.787 304.005 298.997L305.236 296.261C303.308 295.394 301.827 293.762 301.15 291.758L298.308 292.719ZM312.058 291.375C312.569 292.68 312.502 294.141 311.875 295.396L314.558 296.737C315.565 294.724 315.672 292.378 314.851 290.281L312.058 291.375Z" fill="black"/>
<path d="M308.5 166.5L311 177.5L290.5 197.5L261.35 207.36C258.305 208.39 254.95 207.893 252.334 206.024L251.25 205.25C249.098 203.713 249.637 200.376 252.164 199.595L259.75 197.25L273.5 193L280 190.75L286.5 188.5L308.5 166.5Z" fill="white"/>
<path d="M311 177.5L312.048 178.574L312.649 177.987L312.463 177.168L311 177.5ZM308.5 166.5L309.963 166.168C309.842 165.635 309.441 165.21 308.916 165.059C308.391 164.907 307.826 165.053 307.439 165.439L308.5 166.5ZM261.35 207.36L260.87 205.939L260.87 205.939L261.35 207.36ZM290.5 197.5L290.981 198.921L291.304 198.812L291.548 198.574L290.5 197.5ZM286.5 188.5L286.991 189.917L287.317 189.805L287.561 189.561L286.5 188.5ZM280 190.75L280.491 192.167L280.491 192.167L280 190.75ZM273.5 193L273.943 194.433C273.959 194.428 273.975 194.423 273.991 194.417L273.5 193ZM251.25 205.25L252.122 204.029L252.122 204.029L251.25 205.25ZM252.334 206.024L251.462 207.245L251.462 207.245L252.334 206.024ZM259.75 197.25L259.307 195.817L259.75 197.25ZM252.164 199.595L252.607 201.028L252.607 201.028L252.164 199.595ZM312.463 177.168L309.963 166.168L307.037 166.832L309.537 177.832L312.463 177.168ZM261.831 208.78L290.981 198.921L290.019 196.079L260.87 205.939L261.831 208.78ZM307.439 165.439L285.439 187.439L287.561 189.561L309.561 167.561L307.439 165.439ZM286.009 187.083L279.509 189.333L280.491 192.167L286.991 189.917L286.009 187.083ZM279.509 189.333L273.009 191.583L273.991 194.417L280.491 192.167L279.509 189.333ZM250.378 206.471L251.462 207.245L253.206 204.803L252.122 204.029L250.378 206.471ZM273.057 191.567L259.307 195.817L260.193 198.683L273.943 194.433L273.057 191.567ZM259.307 195.817L251.721 198.162L252.607 201.028L260.193 198.683L259.307 195.817ZM260.87 205.939C258.281 206.814 255.429 206.392 253.206 204.803L251.462 207.245C254.47 209.394 258.329 209.965 261.831 208.78L260.87 205.939ZM252.122 204.029C250.98 203.213 251.266 201.442 252.607 201.028L251.721 198.162C248.008 199.309 247.216 204.212 250.378 206.471L252.122 204.029ZM291.548 198.574L312.048 178.574L309.953 176.426L289.453 196.426L291.548 198.574Z" fill="black"/>
<circle cx="291" cy="148" r="13.5" stroke="black" stroke-width="3"/>
<path d="M227.127 206.912L214.098 183.203L225.612 178.035L234.614 203.486L227.127 206.912Z" stroke="black" stroke-width="3"/>
<rect x="128" y="246.865" width="81" height="56.1892" rx="11" fill="black"/>
<rect x="133.838" y="253.432" width="62.027" height="44.5135" rx="11" fill="white"/>
<circle cx="202.797" cy="256.716" r="3.28378" fill="white"/>
<circle cx="202.797" cy="266.203" r="3.28378" fill="white"/>
<line x1="163.868" y1="249.441" x2="153.198" y2="235.808" stroke="black" stroke-width="4" stroke-linecap="round"/>
<line x1="165.787" y1="247.531" x2="177.32" y2="234.619" stroke="black" stroke-width="4" stroke-linecap="round"/>
<path d="M74 89L59 110C59 110 59 97.201 59 89" stroke="black" stroke-width="3"/>
<path d="M10.5 45.2395C10.5 33.354 17.2103 22.4549 28.3382 14.469C39.4635 6.48494 54.9092 1.5 72.0387 1.5C89.1682 1.5 104.614 6.48494 115.739 14.469C126.867 22.4549 133.577 33.354 133.577 45.2395C133.577 59.8263 126.046 70.7867 114.567 78.1646C103.045 85.5701 87.5857 89.3221 72.0387 89.3221C56.4917 89.3221 41.0323 85.5701 29.5106 78.1646C18.0318 70.7867 10.5 59.8263 10.5 45.2395Z" stroke="black" stroke-width="3"/>
<path d="M274 89.0222L284 115.957C284 115.957 285.5 97.3861 285.5 86.8674" stroke="black" stroke-width="3"/>
<path d="M210.5 45.2313C210.5 21.4152 235.638 1.5 267.5 1.5C299.362 1.5 324.5 21.4152 324.5 45.2313C324.5 59.8667 317.484 70.8248 306.865 78.1788C296.2 85.564 281.892 89.3056 267.5 89.3056C253.108 89.3056 238.8 85.564 228.135 78.1788C217.516 70.8248 210.5 59.8667 210.5 45.2313Z" stroke="black" stroke-width="3"/>
<rect x="31.948" y="48.6719" width="36.4938" height="36.4938" transform="rotate(-45 31.948 48.6719)" fill="#D70808"/>
<circle cx="70.1778" cy="36.2468" r="18.2469" transform="rotate(-45 70.1778 36.2468)" fill="#D70808"/>
<circle cx="45.3285" cy="36.2468" r="18.2469" transform="rotate(-45 45.3285 36.2468)" fill="#D70808"/>
<rect x="53.6045" y="56.8777" width="30.9404" height="30.9404" transform="rotate(-45 53.6045 56.8777)" fill="#D70808"/>
<circle cx="86.0166" cy="46.3433" r="15.4702" transform="rotate(-45 86.0166 46.3433)" fill="#D70808"/>
<circle cx="64.9487" cy="46.3433" r="15.4702" transform="rotate(-45 64.9487 46.3433)" fill="#D70808"/>
<path d="M280.537 62.1665C299.392 63.2337 310.035 59.35 313 57.2748C294.767 59.0536 282.761 50.1596 276.535 44.3785C271.554 39.7536 262.601 39.7833 258.747 40.3762C256.672 38.0045 251.543 32.1049 247.629 27.48C246.592 26.2941 243.716 24.2782 240.514 25.7012C239.773 24.8118 238.202 23.2998 237.846 24.3671C237.401 25.7012 234.733 27.4801 235.178 28.8142C235.622 30.1483 228.507 30.1481 230.286 39.0422C231.081 43.0189 233.272 42.5999 235.178 41.2657M277.869 55.0513C278.758 55.6442 280.003 58.3421 277.869 64.39L280.537 65.2794C280.092 69.2816 278.936 77.4641 277.869 78.1756C276.802 78.8871 271.198 78.4721 268.53 78.1756C268.741 76.3968 270.193 72.8392 274.311 72.8392C278.429 72.8392 276.027 68.9852 274.311 67.0582L265.862 64.39C265.592 64.1556 265.291 63.8717 264.973 63.5435M260.081 51.4937C259.718 54.4004 260.653 57.1989 261.952 59.4983M264.973 63.5435C264.824 64.715 264.795 67.325 265.862 68.3922C266.929 69.4595 261.563 74.7663 258.747 77.2862H249.853C249.827 75.8039 251.124 72.8392 256.523 72.8392L260.97 67.0582C259.191 66.4652 255.545 60.5696 255.189 55.9447M264.973 63.5435C264.01 62.5512 262.887 61.1541 261.952 59.4983M261.952 59.4983C258.956 59.0536 251.454 55.1402 245.406 43.0444M252.076 44.3785C250.89 46.1573 248.786 50.2486 249.853 52.3831C247.333 52.3831 242.293 53.3614 242.293 57.2748M243.182 34.5952C241.352 36.753 237.755 39.4615 235.178 41.2657M235.178 41.2657C237.846 43.0446 244.25 42.0662 246.74 38.1528M247.629 48.3809C246.147 47.9362 242.649 47.7583 240.514 50.6044" stroke="black" stroke-width="3" stroke-linecap="round"/>
<circle r="1.77879" transform="matrix(-1 0 0 1 239.625 30.1482)" fill="#242829"/>
<path d="M248 113.861L262.223 125.025L251.744 127.833L270.247 139.254" stroke="black" stroke-width="4"/>
<path d="M2 91.28L24.0903 105.54L12.5 112.5L36 124.419" stroke="black" stroke-width="4"/>
<path d="M108.5 94.5L84.5 112.5L97.273 115.393L76 126" stroke="black" stroke-width="4"/>
<path d="M247 138.605L256.598 146.139L249.526 148.034L262.013 155.741" stroke="black" stroke-width="4"/>
</svg>



