<svg width="302" height="128" viewBox="0 0 302 128" fill="none" xmlns="http://www.w3.org/2000/svg">
<g filter="url(#filter0_d)">
<rect x="7" y="3" width="288" height="114" rx="11" fill="white"/>
</g>
<path d="M27.6317 74.14C26.885 74.14 26.3203 73.93 25.9377 73.51C25.555 73.0807 25.3637 72.4693 25.3637 71.676V71.116H26.8197V71.788C26.8197 72.4227 27.0857 72.74 27.6177 72.74C27.879 72.74 28.075 72.6653 28.2057 72.516C28.3457 72.3573 28.4157 72.1053 28.4157 71.76C28.4157 71.3493 28.3223 70.99 28.1357 70.682C27.949 70.3647 27.6037 69.9867 27.0997 69.548C26.465 68.988 26.0217 68.484 25.7697 68.036C25.5177 67.5787 25.3917 67.0653 25.3917 66.496C25.3917 65.7213 25.5877 65.124 25.9797 64.704C26.3717 64.2747 26.941 64.06 27.6877 64.06C28.425 64.06 28.9803 64.2747 29.3537 64.704C29.7363 65.124 29.9277 65.7307 29.9277 66.524V66.93H28.4717V66.426C28.4717 66.09 28.4063 65.8473 28.2757 65.698C28.145 65.5393 27.9537 65.46 27.7017 65.46C27.1883 65.46 26.9317 65.7727 26.9317 66.398C26.9317 66.7527 27.025 67.084 27.2117 67.392C27.4077 67.7 27.7577 68.0733 28.2617 68.512C28.9057 69.072 29.349 69.5807 29.5917 70.038C29.8343 70.4953 29.9557 71.032 29.9557 71.648C29.9557 72.4507 29.755 73.0667 29.3537 73.496C28.9617 73.9253 28.3877 74.14 27.6317 74.14ZM30.8386 64.2H35.0386V65.6H32.3786V68.19H34.4926V69.59H32.3786V72.6H35.0386V74H30.8386V64.2ZM37.1146 64.2H39.2006L40.7966 74H39.2566L38.9766 72.054V72.082H37.2266L36.9466 74H35.5186L37.1146 64.2ZM38.7946 70.752L38.1086 65.908H38.0806L37.4086 70.752H38.7946ZM41.5437 64.2H43.4757L44.9737 70.066H45.0017V64.2H46.3737V74H44.7917L42.9437 66.846H42.9157V74H41.5437V64.2Z" fill="black"/>
<path d="M197.788 74.14C197.041 74.14 196.477 73.93 196.094 73.51C195.711 73.0807 195.52 72.4693 195.52 71.676V71.116H196.976V71.788C196.976 72.4227 197.242 72.74 197.774 72.74C198.035 72.74 198.231 72.6653 198.362 72.516C198.502 72.3573 198.572 72.1053 198.572 71.76C198.572 71.3493 198.479 70.99 198.292 70.682C198.105 70.3647 197.76 69.9867 197.256 69.548C196.621 68.988 196.178 68.484 195.926 68.036C195.674 67.5787 195.548 67.0653 195.548 66.496C195.548 65.7213 195.744 65.124 196.136 64.704C196.528 64.2747 197.097 64.06 197.844 64.06C198.581 64.06 199.137 64.2747 199.51 64.704C199.893 65.124 200.084 65.7307 200.084 66.524V66.93H198.628V66.426C198.628 66.09 198.563 65.8473 198.432 65.698C198.301 65.5393 198.11 65.46 197.858 65.46C197.345 65.46 197.088 65.7727 197.088 66.398C197.088 66.7527 197.181 67.084 197.368 67.392C197.564 67.7 197.914 68.0733 198.418 68.512C199.062 69.072 199.505 69.5807 199.748 70.038C199.991 70.4953 200.112 71.032 200.112 71.648C200.112 72.4507 199.911 73.0667 199.51 73.496C199.118 73.9253 198.544 74.14 197.788 74.14ZM200.995 64.2H202.535V68.19H204.187V64.2H205.727V74H204.187V69.59H202.535V74H200.995V64.2ZM208.064 64.2H210.15L211.746 74H210.206L209.926 72.054V72.082H208.176L207.896 74H206.468L208.064 64.2ZM209.744 70.752L209.058 65.908H209.03L208.358 70.752H209.744ZM214.706 74.14C213.959 74.14 213.39 73.93 212.998 73.51C212.606 73.0807 212.41 72.4693 212.41 71.676V64.2H213.95V71.788C213.95 72.124 214.015 72.3667 214.146 72.516C214.286 72.6653 214.482 72.74 214.734 72.74C214.986 72.74 215.177 72.6653 215.308 72.516C215.448 72.3667 215.518 72.124 215.518 71.788V64.2H217.002V71.676C217.002 72.4693 216.806 73.0807 216.414 73.51C216.022 73.93 215.452 74.14 214.706 74.14ZM218.098 64.2H220.03L221.528 70.066H221.556V64.2H222.928V74H221.346L219.498 66.846H219.47V74H218.098V64.2ZM228.541 74.14C227.785 74.14 227.207 73.9253 226.805 73.496C226.404 73.0667 226.203 72.46 226.203 71.676V66.524C226.203 65.74 226.404 65.1333 226.805 64.704C227.207 64.2747 227.785 64.06 228.541 64.06C229.297 64.06 229.876 64.2747 230.277 64.704C230.679 65.1333 230.879 65.74 230.879 66.524V71.676C230.879 72.46 230.679 73.0667 230.277 73.496C229.876 73.9253 229.297 74.14 228.541 74.14ZM228.541 72.74C229.073 72.74 229.339 72.418 229.339 71.774V66.426C229.339 65.782 229.073 65.46 228.541 65.46C228.009 65.46 227.743 65.782 227.743 66.426V71.774C227.743 72.418 228.009 72.74 228.541 72.74ZM231.921 64.2H235.995V65.6H233.461V68.33H235.449V69.73H233.461V74H231.921V64.2ZM240.179 65.6H238.569V64.2H243.329V65.6H241.719V74H240.179V65.6ZM244.075 64.2H245.615V68.19H247.267V64.2H248.807V74H247.267V69.59H245.615V74H244.075V64.2ZM249.954 64.2H254.154V65.6H251.494V68.19H253.608V69.59H251.494V72.6H254.154V74H249.954V64.2ZM257.282 64.2H259.634C260.399 64.2 260.973 64.4053 261.356 64.816C261.739 65.2267 261.93 65.8287 261.93 66.622V71.578C261.93 72.3713 261.739 72.9733 261.356 73.384C260.973 73.7947 260.399 74 259.634 74H257.282V64.2ZM259.606 72.6C259.858 72.6 260.049 72.5253 260.18 72.376C260.32 72.2267 260.39 71.984 260.39 71.648V66.552C260.39 66.216 260.32 65.9733 260.18 65.824C260.049 65.6747 259.858 65.6 259.606 65.6H258.822V72.6H259.606ZM262.97 64.2H267.17V65.6H264.51V68.19H266.624V69.59H264.51V72.6H267.17V74H262.97V64.2ZM269.245 64.2H271.331L272.927 74H271.387L271.107 72.054V72.082H269.357L269.077 74H267.649L269.245 64.2ZM270.925 70.752L270.239 65.908H270.211L269.539 70.752H270.925ZM273.675 64.2H276.027C276.792 64.2 277.366 64.4053 277.749 64.816C278.131 65.2267 278.323 65.8287 278.323 66.622V71.578C278.323 72.3713 278.131 72.9733 277.749 73.384C277.366 73.7947 276.792 74 276.027 74H273.675V64.2ZM275.999 72.6C276.251 72.6 276.442 72.5253 276.573 72.376C276.713 72.2267 276.783 71.984 276.783 71.648V66.552C276.783 66.216 276.713 65.9733 276.573 65.824C276.442 65.6747 276.251 65.6 275.999 65.6H275.215V72.6H275.999Z" fill="black"/>
<line x1="25" y1="77.5" x2="279" y2="77.5" stroke="#E5E5E5"/>
<path d="M27.5985 96.14C26.8518 96.14 26.2871 95.93 25.9045 95.51C25.5218 95.0807 25.3305 94.4693 25.3305 93.676V93.116H26.7865V93.788C26.7865 94.4227 27.0525 94.74 27.5845 94.74C27.8458 94.74 28.0418 94.6653 28.1725 94.516C28.3125 94.3573 28.3825 94.1053 28.3825 93.76C28.3825 93.3493 28.2891 92.99 28.1025 92.682C27.9158 92.3647 27.5705 91.9867 27.0665 91.548C26.4318 90.988 25.9885 90.484 25.7365 90.036C25.4845 89.5787 25.3585 89.0653 25.3585 88.496C25.3585 87.7213 25.5545 87.124 25.9465 86.704C26.3385 86.2747 26.9078 86.06 27.6545 86.06C28.3918 86.06 28.9471 86.2747 29.3205 86.704C29.7031 87.124 29.8945 87.7307 29.8945 88.524V88.93H28.4385V88.426C28.4385 88.09 28.3731 87.8473 28.2425 87.698C28.1118 87.5393 27.9205 87.46 27.6685 87.46C27.1551 87.46 26.8985 87.7727 26.8985 88.398C26.8985 88.7527 26.9918 89.084 27.1785 89.392C27.3745 89.7 27.7245 90.0733 28.2285 90.512C28.8725 91.072 29.3158 91.5807 29.5585 92.038C29.8011 92.4953 29.9225 93.032 29.9225 93.648C29.9225 94.4507 29.7218 95.0667 29.3205 95.496C28.9285 95.9253 28.3545 96.14 27.5985 96.14ZM30.8054 86.2H35.0054V87.6H32.3454V90.19H34.4594V91.59H32.3454V94.6H35.0054V96H30.8054V86.2ZM35.8914 86.2H38.2154C39.0087 86.2 39.5874 86.3867 39.9514 86.76C40.3154 87.124 40.4974 87.6887 40.4974 88.454V88.846C40.4974 89.35 40.4134 89.7607 40.2454 90.078C40.0867 90.3953 39.8394 90.624 39.5034 90.764V90.792C40.2687 91.0533 40.6514 91.7347 40.6514 92.836V93.676C40.6514 94.432 40.4507 95.0107 40.0494 95.412C39.6574 95.804 39.0787 96 38.3134 96H35.8914V86.2ZM38.0334 90.19C38.3414 90.19 38.57 90.1107 38.7194 89.952C38.878 89.7933 38.9574 89.5273 38.9574 89.154V88.608C38.9574 88.2533 38.892 87.9967 38.7614 87.838C38.64 87.6793 38.444 87.6 38.1734 87.6H37.4314V90.19H38.0334ZM38.3134 94.6C38.584 94.6 38.7847 94.53 38.9154 94.39C39.046 94.2407 39.1114 93.9887 39.1114 93.634V92.78C39.1114 92.332 39.032 92.024 38.8734 91.856C38.724 91.6787 38.472 91.59 38.1174 91.59H37.4314V94.6H38.3134Z" fill="black"/>
<path d="M244.259 96.14C243.503 96.14 242.924 95.9253 242.523 95.496C242.122 95.0667 241.921 94.46 241.921 93.676V88.524C241.921 87.74 242.122 87.1333 242.523 86.704C242.924 86.2747 243.503 86.06 244.259 86.06C245.015 86.06 245.594 86.2747 245.995 86.704C246.396 87.1333 246.597 87.74 246.597 88.524V93.676C246.597 94.46 246.396 95.0667 245.995 95.496C245.594 95.9253 245.015 96.14 244.259 96.14ZM244.259 94.74C244.791 94.74 245.057 94.418 245.057 93.774V88.426C245.057 87.782 244.791 87.46 244.259 87.46C243.727 87.46 243.461 87.782 243.461 88.426V93.774C243.461 94.418 243.727 94.74 244.259 94.74ZM249.64 96.14C248.894 96.14 248.329 95.93 247.946 95.51C247.564 95.0807 247.372 94.4693 247.372 93.676V93.116H248.828V93.788C248.828 94.4227 249.094 94.74 249.626 94.74C249.888 94.74 250.084 94.6653 250.214 94.516C250.354 94.3573 250.424 94.1053 250.424 93.76C250.424 93.3493 250.331 92.99 250.144 92.682C249.958 92.3647 249.612 91.9867 249.108 91.548C248.474 90.988 248.03 90.484 247.778 90.036C247.526 89.5787 247.4 89.0653 247.4 88.496C247.4 87.7213 247.596 87.124 247.988 86.704C248.38 86.2747 248.95 86.06 249.696 86.06C250.434 86.06 250.989 86.2747 251.362 86.704C251.745 87.124 251.936 87.7307 251.936 88.524V88.93H250.48V88.426C250.48 88.09 250.415 87.8473 250.284 87.698C250.154 87.5393 249.962 87.46 249.71 87.46C249.197 87.46 248.94 87.7727 248.94 88.398C248.94 88.7527 249.034 89.084 249.22 89.392C249.416 89.7 249.766 90.0733 250.27 90.512C250.914 91.072 251.358 91.5807 251.6 92.038C251.843 92.4953 251.964 93.032 251.964 93.648C251.964 94.4507 251.764 95.0667 251.362 95.496C250.97 95.9253 250.396 96.14 249.64 96.14ZM254.849 96.14C254.103 96.14 253.538 95.93 253.155 95.51C252.773 95.0807 252.581 94.4693 252.581 93.676V93.116H254.037V93.788C254.037 94.4227 254.303 94.74 254.835 94.74C255.097 94.74 255.293 94.6653 255.423 94.516C255.563 94.3573 255.633 94.1053 255.633 93.76C255.633 93.3493 255.54 92.99 255.353 92.682C255.167 92.3647 254.821 91.9867 254.317 91.548C253.683 90.988 253.239 90.484 252.987 90.036C252.735 89.5787 252.609 89.0653 252.609 88.496C252.609 87.7213 252.805 87.124 253.197 86.704C253.589 86.2747 254.159 86.06 254.905 86.06C255.643 86.06 256.198 86.2747 256.571 86.704C256.954 87.124 257.145 87.7307 257.145 88.524V88.93H255.689V88.426C255.689 88.09 255.624 87.8473 255.493 87.698C255.363 87.5393 255.171 87.46 254.919 87.46C254.406 87.46 254.149 87.7727 254.149 88.398C254.149 88.7527 254.243 89.084 254.429 89.392C254.625 89.7 254.975 90.0733 255.479 90.512C256.123 91.072 256.567 91.5807 256.809 92.038C257.052 92.4953 257.173 93.032 257.173 93.648C257.173 94.4507 256.973 95.0667 256.571 95.496C256.179 95.9253 255.605 96.14 254.849 96.14ZM262.455 88.524H260.845V87.432C261.283 87.432 261.633 87.3947 261.895 87.32C262.165 87.2453 262.38 87.124 262.539 86.956C262.697 86.7787 262.837 86.5267 262.959 86.2H263.995V96H262.455V88.524ZM268.06 88.524H266.45V87.432C266.889 87.432 267.239 87.3947 267.5 87.32C267.771 87.2453 267.985 87.124 268.144 86.956C268.303 86.7787 268.443 86.5267 268.564 86.2H269.6V96H268.06V88.524ZM274.52 87.6H271.412V86.2H276.032V87.544L273.624 96H272.056L274.52 87.6Z" fill="black"/>
<path d="M26.9419 53.056C26.6619 53.056 26.4239 53.0373 26.2279 53V51.6C26.3772 51.6373 26.5452 51.656 26.7319 51.656C27.0399 51.656 27.2686 51.5813 27.4179 51.432C27.5672 51.2733 27.6419 51.0353 27.6419 50.718V43.2H29.1819V50.676C29.1819 51.4787 28.9952 52.076 28.6219 52.468C28.2579 52.86 27.6979 53.056 26.9419 53.056ZM30.283 43.2H31.823V53H30.283V43.2ZM32.9763 43.2H34.9083L36.4063 49.066H36.4343V43.2H37.8063V53H36.2243L34.3763 45.846H34.3483V53H32.9763V43.2ZM40.141 43.2H42.227L43.823 53H42.283L42.003 51.054V51.082H40.253L39.973 53H38.545L40.141 43.2ZM41.821 49.752L41.135 44.908H41.107L40.435 49.752H41.821Z" fill="black"/>
<path d="M263.009 49.822C263.009 49.4767 263.06 49.15 263.163 48.842C263.275 48.5247 263.476 48.1607 263.765 47.75C264.101 47.274 264.33 46.8633 264.451 46.518C264.572 46.1727 264.633 45.8087 264.633 45.426C264.633 45.09 264.568 44.8473 264.437 44.698C264.306 44.5393 264.115 44.46 263.863 44.46C263.611 44.46 263.42 44.5393 263.289 44.698C263.158 44.8473 263.093 45.09 263.093 45.426V46.49H261.637V45.524C261.637 44.7307 261.828 44.124 262.211 43.704C262.594 43.2747 263.154 43.06 263.891 43.06C264.638 43.06 265.202 43.2747 265.585 43.704C265.977 44.124 266.173 44.7307 266.173 45.524C266.173 45.9533 266.094 46.3687 265.935 46.77C265.786 47.162 265.524 47.6053 265.151 48.1C264.852 48.5013 264.642 48.8373 264.521 49.108C264.409 49.3693 264.353 49.626 264.353 49.878V50.41H263.009V49.822ZM262.939 51.516H264.423V53H262.939V51.516ZM268.095 49.822C268.095 49.4767 268.146 49.15 268.249 48.842C268.361 48.5247 268.562 48.1607 268.851 47.75C269.187 47.274 269.416 46.8633 269.537 46.518C269.658 46.1727 269.719 45.8087 269.719 45.426C269.719 45.09 269.654 44.8473 269.523 44.698C269.392 44.5393 269.201 44.46 268.949 44.46C268.697 44.46 268.506 44.5393 268.375 44.698C268.244 44.8473 268.179 45.09 268.179 45.426V46.49H266.723V45.524C266.723 44.7307 266.914 44.124 267.297 43.704C267.68 43.2747 268.24 43.06 268.977 43.06C269.724 43.06 270.288 43.2747 270.671 43.704C271.063 44.124 271.259 44.7307 271.259 45.524C271.259 45.9533 271.18 46.3687 271.021 46.77C270.872 47.162 270.61 47.6053 270.237 48.1C269.938 48.5013 269.728 48.8373 269.607 49.108C269.495 49.3693 269.439 49.626 269.439 49.878V50.41H268.095V49.822ZM268.025 51.516H269.509V53H268.025V51.516ZM273.181 49.822C273.181 49.4767 273.232 49.15 273.335 48.842C273.447 48.5247 273.648 48.1607 273.937 47.75C274.273 47.274 274.502 46.8633 274.623 46.518C274.744 46.1727 274.805 45.8087 274.805 45.426C274.805 45.09 274.74 44.8473 274.609 44.698C274.478 44.5393 274.287 44.46 274.035 44.46C273.783 44.46 273.592 44.5393 273.461 44.698C273.33 44.8473 273.265 45.09 273.265 45.426V46.49H271.809V45.524C271.809 44.7307 272 44.124 272.383 43.704C272.766 43.2747 273.326 43.06 274.063 43.06C274.81 43.06 275.374 43.2747 275.757 43.704C276.149 44.124 276.345 44.7307 276.345 45.524C276.345 45.9533 276.266 46.3687 276.107 46.77C275.958 47.162 275.696 47.6053 275.323 48.1C275.024 48.5013 274.814 48.8373 274.693 49.108C274.581 49.3693 274.525 49.626 274.525 49.878V50.41H273.181V49.822ZM273.111 51.516H274.595V53H273.111V51.516Z" fill="black"/>
<line x1="25" y1="56.5" x2="279" y2="56.5" stroke="#E5E5E5"/>
<path d="M59.3351 26.196C57.7111 26.196 56.5398 25.7713 55.8211 24.922C55.1118 24.0727 54.7571 22.8267 54.7571 21.184V17.53H53.6511V15.122H59.5871V17.53H58.5791V22.108C58.5791 22.556 58.6864 22.9247 58.9011 23.214C59.1251 23.494 59.4704 23.634 59.9371 23.634C60.3291 23.634 60.6371 23.5173 60.8611 23.284C61.0944 23.0507 61.2111 22.7333 61.2111 22.332V17.53H60.0911V15.122H64.5571V17.53H63.5071V22.234C63.5071 23.5407 63.1244 24.53 62.3591 25.202C61.5938 25.8647 60.5858 26.196 59.3351 26.196ZM70.5795 26.196C70.0195 26.196 69.5715 26.1307 69.2355 26C68.9088 25.8787 68.5542 25.6687 68.1715 25.37L67.9335 26H65.7215V22.668H67.9195C68.0595 23.0507 68.2742 23.3213 68.5635 23.48C68.8622 23.6387 69.2262 23.718 69.6555 23.718C69.9168 23.718 70.1408 23.6667 70.3275 23.564C70.5142 23.452 70.6075 23.3073 70.6075 23.13C70.6075 22.906 70.5095 22.738 70.3135 22.626C70.1268 22.514 69.8608 22.4113 69.5155 22.318C68.6382 22.0753 67.9148 21.814 67.3455 21.534C66.7855 21.254 66.3328 20.8527 65.9875 20.33C65.6422 19.8073 65.4695 19.1167 65.4695 18.258C65.4695 17.5953 65.6095 17.012 65.8895 16.508C66.1788 16.004 66.5895 15.612 67.1215 15.332C67.6535 15.052 68.2788 14.912 68.9975 14.912C69.8748 14.912 70.5702 15.192 71.0835 15.752L71.4335 15.108H73.3935V18.37H71.2935C71.0975 17.9593 70.8782 17.6747 70.6355 17.516C70.4022 17.3573 70.0802 17.278 69.6695 17.278C69.3522 17.278 69.1048 17.334 68.9275 17.446C68.7595 17.558 68.6755 17.712 68.6755 17.908C68.6755 18.1227 68.7968 18.2907 69.0395 18.412C69.2915 18.524 69.6462 18.6313 70.1035 18.734C70.9155 18.9207 71.6015 19.154 72.1615 19.434C72.7308 19.7047 73.1835 20.0967 73.5195 20.61C73.8648 21.114 74.0375 21.7673 74.0375 22.57C74.0375 23.2513 73.8928 23.8673 73.6035 24.418C73.3235 24.9687 72.9175 25.4027 72.3855 25.72C71.8628 26.0373 71.2608 26.196 70.5795 26.196ZM75.2068 26V23.592H76.5228V17.53H75.2068V15.122H84.3908V19.448H82.6408L81.9828 17.53H80.0228V19.308H81.7728V21.1H80.0228V23.592H81.9828L82.6408 21.366H84.3908V26H75.2068ZM85.3429 23.592H86.4349V17.53H85.3429V15.122H92.3289C93.4583 15.122 94.2889 15.3507 94.8209 15.808C95.3529 16.2653 95.6189 17.0213 95.6189 18.076C95.6189 18.7853 95.4183 19.3313 95.0169 19.714C94.6249 20.0967 94.0649 20.3533 93.3369 20.484C93.9903 20.5867 94.4616 20.834 94.7509 21.226C95.0403 21.6087 95.1849 22.0893 95.1849 22.668V23.55H96.7109V26H94.5129C93.8036 26 93.2949 25.9533 92.9869 25.86C92.6789 25.7667 92.4409 25.51 92.2729 25.09C92.1143 24.67 92.0349 23.97 92.0349 22.99C92.0349 22.43 91.9416 22.0147 91.7549 21.744C91.5776 21.4733 91.2463 21.338 90.7609 21.338H89.9349V23.592H91.0269V26H85.3429V23.592ZM90.8729 19.784C91.3676 19.784 91.7363 19.6953 91.9789 19.518C92.2216 19.3407 92.3429 19.028 92.3429 18.58C92.3429 18.2533 92.2169 17.9967 91.9649 17.81C91.7223 17.6233 91.4049 17.53 91.0129 17.53H89.9349V19.784H90.8729Z" fill="black"/>
<path d="M188.423 26.196C187.415 26.196 186.491 25.986 185.651 25.566C184.82 25.1367 184.153 24.4973 183.649 23.648C183.154 22.7893 182.907 21.7393 182.907 20.498C182.907 19.4527 183.093 18.51 183.467 17.67C183.849 16.8207 184.405 16.1487 185.133 15.654C185.87 15.1593 186.757 14.912 187.793 14.912C188.325 14.912 188.801 15.038 189.221 15.29C189.641 15.5327 189.944 15.8453 190.131 16.228L190.411 15.122H192.539V19.588H190.355V19.364C190.355 18.7853 190.219 18.314 189.949 17.95C189.687 17.5767 189.295 17.39 188.773 17.39C188.418 17.39 188.091 17.5253 187.793 17.796C187.503 18.0667 187.275 18.4213 187.107 18.86C186.939 19.2987 186.855 19.7513 186.855 20.218C186.855 21.1327 187.083 21.8513 187.541 22.374C187.998 22.8873 188.623 23.144 189.417 23.144C189.977 23.144 190.495 23.0507 190.971 22.864C191.456 22.6773 191.853 22.4767 192.161 22.262L192.315 22.388V25.3C191.736 25.636 191.125 25.8693 190.481 26C189.837 26.1307 189.151 26.196 188.423 26.196ZM193.545 26V23.592H194.637V17.53H193.545V15.122L199.005 15.108V17.53H198.137V19.322H200.755V17.53H199.887V15.108L205.347 15.122V17.53H204.255V23.592H205.347V26H199.887V23.592H200.755V21.66H198.137V23.592H199.005V26H193.545ZM211.76 26.196C210.621 26.196 209.636 25.9533 208.806 25.468C207.984 24.9827 207.359 24.3153 206.93 23.466C206.5 22.6073 206.286 21.632 206.286 20.54C206.286 19.4107 206.5 18.4213 206.93 17.572C207.359 16.7227 207.984 16.0693 208.806 15.612C209.627 15.1453 210.612 14.912 211.76 14.912C212.908 14.912 213.892 15.1453 214.714 15.612C215.535 16.0693 216.16 16.7227 216.59 17.572C217.019 18.4213 217.234 19.4107 217.234 20.54C217.234 21.632 217.019 22.6073 216.59 23.466C216.16 24.3153 215.53 24.9827 214.7 25.468C213.878 25.9533 212.898 26.196 211.76 26.196ZM211.76 23.774C212.254 23.774 212.632 23.4753 212.894 22.878C213.155 22.2807 213.286 21.4827 213.286 20.484C213.286 19.5133 213.16 18.748 212.908 18.188C212.656 17.6187 212.273 17.334 211.76 17.334C211.246 17.334 210.864 17.6187 210.612 18.188C210.36 18.748 210.234 19.5133 210.234 20.484C210.234 21.4827 210.364 22.2807 210.626 22.878C210.887 23.4753 211.265 23.774 211.76 23.774ZM218.902 26V23.592H219.994V17.53H218.902V15.122H224.586V17.53H223.494V23.592H224.586V26H218.902ZM230.997 26.196C229.989 26.196 229.065 25.986 228.225 25.566C227.394 25.1367 226.727 24.4973 226.223 23.648C225.728 22.7893 225.481 21.7393 225.481 20.498C225.481 19.4527 225.668 18.51 226.041 17.67C226.424 16.8207 226.979 16.1487 227.707 15.654C228.444 15.1593 229.331 14.912 230.367 14.912C230.899 14.912 231.375 15.038 231.795 15.29C232.215 15.5327 232.518 15.8453 232.705 16.228L232.985 15.122H235.113V19.588H232.929V19.364C232.929 18.7853 232.794 18.314 232.523 17.95C232.262 17.5767 231.87 17.39 231.347 17.39C230.992 17.39 230.666 17.5253 230.367 17.796C230.078 18.0667 229.849 18.4213 229.681 18.86C229.513 19.2987 229.429 19.7513 229.429 20.218C229.429 21.1327 229.658 21.8513 230.115 22.374C230.572 22.8873 231.198 23.144 231.991 23.144C232.551 23.144 233.069 23.0507 233.545 22.864C234.03 22.6773 234.427 22.4767 234.735 22.262L234.889 22.388V25.3C234.31 25.636 233.699 25.8693 233.055 26C232.411 26.1307 231.725 26.196 230.997 26.196ZM236.273 26V23.592H237.589V17.53H236.273V15.122H245.457V19.448H243.707L243.049 17.53H241.089V19.308H242.839V21.1H241.089V23.592H243.049L243.707 21.366H245.457V26H236.273Z" fill="black"/>
<defs>
<filter id="filter0_d" x="0" y="0" width="302" height="128" filterUnits="userSpaceOnUse" color-interpolation-filters="sRGB">
<feFlood flood-opacity="0" result="BackgroundImageFix"/>
<feColorMatrix in="SourceAlpha" type="matrix" values="0 0 0 0 0 0 0 0 0 0 0 0 0 0 0 0 0 0 127 0"/>
<feMorphology radius="3" operator="dilate" in="SourceAlpha" result="effect1_dropShadow"/>
<feOffset dy="4"/>
<feGaussianBlur stdDeviation="2"/>
<feColorMatrix type="matrix" values="0 0 0 0 0 0 0 0 0 0 0 0 0 0 0 0 0 0 0.59 0"/>
<feBlend mode="normal" in2="BackgroundImageFix" result="effect1_dropShadow"/>
<feBlend mode="normal" in="SourceGraphic" in2="effect1_dropShadow" result="shape"/>
</filter>
</defs>
</svg>
