<svg width="141" height="134" viewBox="0 0 141 134" fill="none" xmlns="http://www.w3.org/2000/svg">
<path d="M37.3966 34.9316C38.1872 34.1602 38.2028 32.894 37.4315 32.1034C36.6602 31.3127 35.3939 31.2971 34.6033 32.0684L37.3966 34.9316ZM15.5 53.5L14.1033 52.0684C13.8882 52.2783 13.7231 52.534 13.6204 52.8165L15.5 53.5ZM7.49996 75.5L9.24827 76.4713C9.29956 76.379 9.34345 76.2827 9.37954 76.1835L7.49996 75.5ZM15.5 80.5L13.9635 79.2196L15.5 80.5ZM21.5 60.5L20.4027 58.8279C20.1076 59.0216 19.869 59.2899 19.7111 59.6056L21.5 60.5ZM37.4999 50L39.3713 49.2944C39.1571 48.7263 38.6964 48.2862 38.1191 48.0982C37.5417 47.9103 36.9102 47.9948 36.4026 48.3279L37.4999 50ZM83 101.5L84.9218 100.946C84.7801 100.454 84.4552 100.036 84.014 99.7761L83 101.5ZM91.5 131L89.5782 131.554C89.7756 132.239 90.3231 132.767 91.0149 132.94L91.5 131ZM101.5 128.5L102.914 129.914C103.422 129.406 103.619 128.665 103.429 127.972L101.5 128.5ZM91.5 92L93.4289 91.4715C93.3092 91.0347 93.0448 90.6514 92.6789 90.3844L91.5 92ZM72.9999 78.5L72.92 76.5016C72.0697 76.5356 71.334 77.104 71.0865 77.9181C70.8389 78.7323 71.1336 79.614 71.821 80.1156L72.9999 78.5ZM97.9999 77.5L99.1182 75.8419C98.7652 75.6038 98.3454 75.4846 97.92 75.5016L97.9999 77.5ZM119.5 92L118.382 93.6581C118.852 93.9753 119.435 94.0779 119.985 93.9403L119.5 92ZM126.5 84L128.477 84.3041C128.584 83.6054 128.315 82.9018 127.768 82.4535L126.5 84ZM101.5 63.5L102.768 61.9535C102.411 61.6602 101.962 61.5 101.5 61.5V63.5ZM71.5 63.5L69.6724 64.3123C69.9934 65.0345 70.7096 65.5 71.5 65.5V63.5ZM63.4999 45.5L64.0429 43.5751C63.2965 43.3646 62.4958 43.6045 61.9881 44.1907C61.4804 44.7769 61.3574 45.6037 61.6723 46.3123L63.4999 45.5ZM83 51L82.4571 52.9249C82.9165 53.0545 83.4071 53.0155 83.8402 52.8149L83 51ZM110 38.5L110.84 40.3149C111.42 40.0468 111.836 39.5182 111.961 38.8922L110 38.5ZM104 29.5L104.392 27.5388C104.022 27.4647 103.638 27.4971 103.285 27.6323L104 29.5ZM80.5 38.5L79.7402 40.35C80.2117 40.5437 80.7393 40.55 81.2153 40.3677L80.5 38.5ZM53.2598 25.15C52.238 24.7303 51.0695 25.2184 50.6499 26.2402C50.2303 27.2619 50.7184 28.4304 51.7401 28.85L53.2598 25.15ZM122.921 91.1448L122.436 89.2045L122.921 91.1448ZM125.904 87.8725L127.881 88.1766L125.904 87.8725ZM100.302 129.698L101.717 131.112L100.302 129.698ZM110.519 35.9029L112.481 36.2951L110.519 35.9029ZM106.597 30.0194L106.205 31.9806L106.597 30.0194ZM34.6033 32.0684L14.1033 52.0684L16.8966 54.9316L37.3966 34.9316L34.6033 32.0684ZM13.6204 52.8165L5.62037 74.8165L9.37954 76.1835L17.3795 54.1835L13.6204 52.8165ZM5.75164 74.5287C3.99172 77.6965 5.05468 81.4702 7.3905 83.46C8.61016 84.499 10.2471 85.1165 12.0645 84.8637C13.8664 84.6131 15.5628 83.5487 17.0364 81.7804L13.9635 79.2196C12.9371 80.4513 12.071 80.8244 11.5135 80.9019C10.9716 80.9772 10.4522 80.8135 9.98436 80.415C8.94519 79.5298 8.50817 77.8035 9.24827 76.4713L5.75164 74.5287ZM17.0364 81.7804C18 80.624 18.6873 78.8711 19.2273 77.1387C19.7897 75.3342 20.2814 73.241 20.7352 71.1937C21.1966 69.1119 21.6144 67.0995 22.0487 65.3228C22.4914 63.5121 22.9009 62.1703 23.2889 61.3944L19.7111 59.6056C19.0991 60.8297 18.6028 62.5749 18.1632 64.3729C17.7153 66.2049 17.2744 68.3229 16.8299 70.3281C16.3779 72.3678 15.9167 74.318 15.4085 75.9483C14.8778 77.6507 14.3767 78.7239 13.9635 79.2196L17.0364 81.7804ZM22.5973 62.1721L38.5973 51.6721L36.4026 48.3279L20.4027 58.8279L22.5973 62.1721ZM35.6285 50.7056C37.5325 55.7551 39.5205 63.4869 41.8336 70.6751C42.963 74.1849 44.1634 77.5295 45.4375 80.1484C46.0742 81.4572 46.7596 82.6487 47.5042 83.608C48.2276 84.5402 49.1394 85.4272 50.2821 85.8667L51.718 82.1333C51.5606 82.0728 51.1953 81.84 50.6642 81.1556C50.1542 80.4985 49.6076 79.5767 49.0344 78.3985C47.8887 76.0435 46.7578 72.9193 45.6413 69.4499C43.4628 62.6798 41.3008 54.4115 39.3713 49.2944L35.6285 50.7056ZM50.2821 85.8667C52.7202 86.8044 58.4545 89.8459 64.7897 93.3725C71.06 96.8629 77.7458 100.73 81.986 103.224L84.014 99.7761C79.7542 97.2703 73.04 93.3871 66.7353 89.8775C60.4955 86.4041 54.4798 83.1956 51.718 82.1333L50.2821 85.8667ZM81.0782 102.054L89.5782 131.554L93.4218 130.446L84.9218 100.946L81.0782 102.054ZM103.429 127.972L93.4289 91.4715L89.5711 92.5285L99.5711 129.028L103.429 127.972ZM92.6789 90.3844L74.1789 76.8844L71.821 80.1156L90.3211 93.6156L92.6789 90.3844ZM73.0799 80.4984L98.0799 79.4984L97.92 75.5016L72.92 76.5016L73.0799 80.4984ZM96.8817 79.1581L118.382 93.6581L120.618 90.3419L99.1182 75.8419L96.8817 79.1581ZM127.768 82.4535L102.768 61.9535L100.232 65.0465L125.232 85.5465L127.768 82.4535ZM101.5 61.5H71.5V65.5H101.5V61.5ZM73.3276 62.6877L65.3276 44.6877L61.6723 46.3123L69.6724 64.3123L73.3276 62.6877ZM62.957 47.4249L82.4571 52.9249L83.5429 49.0751L64.0429 43.5751L62.957 47.4249ZM83.8402 52.8149L110.84 40.3149L109.16 36.6851L82.1598 49.1851L83.8402 52.8149ZM103.285 27.6323L79.7847 36.6323L81.2153 40.3677L104.715 31.3677L103.285 27.6323ZM81.2598 36.65L53.2598 25.15L51.7401 28.85L79.7402 40.35L81.2598 36.65ZM111.961 38.8922L112.481 36.2951L108.558 35.5107L108.039 38.1078L111.961 38.8922ZM106.989 28.0583L104.392 27.5388L103.608 31.4612L106.205 31.9806L106.989 28.0583ZM91.0149 132.94L93.1699 133.479L94.14 129.598L91.9851 129.06L91.0149 132.94ZM101.717 131.112L102.914 129.914L100.086 127.086L98.8882 128.283L101.717 131.112ZM119.985 93.9403L123.406 93.0851L122.436 89.2045L119.015 90.0597L119.985 93.9403ZM127.881 88.1766L128.477 84.3041L124.523 83.6959L123.927 87.5683L127.881 88.1766ZM123.406 93.0851C125.75 92.4991 127.514 90.5645 127.881 88.1766L123.927 87.5683C123.805 88.3643 123.217 89.0092 122.436 89.2045L123.406 93.0851ZM93.1699 133.479C96.2368 134.246 99.4812 133.347 101.717 131.112L98.8882 128.283C97.6463 129.525 95.8439 130.024 94.14 129.598L93.1699 133.479ZM112.481 36.2951C113.239 32.5042 110.78 28.8164 106.989 28.0583L106.205 31.9806C107.83 32.3055 108.883 33.886 108.558 35.5107L112.481 36.2951Z" fill="black"/>
<circle cx="39" cy="14" r="12" stroke="black" stroke-width="4"/>
<line x1="2" y1="113" x2="44" y2="113" stroke="black" stroke-width="4" stroke-linecap="round"/>
<line x1="25" y1="121" x2="67" y2="121" stroke="black" stroke-width="4" stroke-linecap="round"/>
<line x1="121.704" y1="67.1871" x2="136.187" y2="49.2961" stroke="black" stroke-width="4" stroke-linecap="round"/>
<line x1="125.146" y1="71.6199" x2="137.498" y2="66.8541" stroke="black" stroke-width="4" stroke-linecap="round"/>
<line x1="116.884" y1="63.4121" x2="121.792" y2="51.116" stroke="black" stroke-width="4" stroke-linecap="round"/>
<line x1="2" y1="128" x2="44" y2="128" stroke="black" stroke-width="4" stroke-linecap="round"/>
</svg>
