<svg width="375" height="102" viewBox="0 0 375 102" fill="none" xmlns="http://www.w3.org/2000/svg">
<path d="M-3.3772 53.8037L34.863 42.0374L45.8939 79.5423L67.2201 83.9546L13.5367 99.3978L20.8906 71.453L-3.3772 53.8037Z" fill="#D70808" stroke="white"/>
<path d="M356.963 100.869C356.375 99.1036 320.929 88.8572 303.28 83.9546L324.606 80.2777L337.843 41.302L373.877 53.8037L351.08 70.7176C353.286 81.5033 357.552 102.633 356.963 100.869Z" fill="#D70808" stroke="white"/>
<path d="M322.4 77.3362C197.09 43.8024 86.8306 63.3638 47.3647 77.3362L33.3923 24.3882C159.291 -17.9701 289.798 6.73892 339.314 24.3882L322.4 77.3362Z" fill="#D70808" stroke="white"/>
<path d="M119.583 43.31C117.929 43.31 116.669 42.845 115.801 41.915C114.933 40.9643 114.499 39.6107 114.499 37.854V26.446C114.499 24.6893 114.933 23.346 115.801 22.416C116.669 21.4653 117.929 20.99 119.583 20.99C121.236 20.99 122.497 21.4653 123.365 22.416C124.233 23.346 124.667 24.6893 124.667 26.446V28.306H121.443V26.229C121.443 24.803 120.854 24.09 119.676 24.09C118.498 24.09 117.909 24.803 117.909 26.229V38.102C117.909 39.5073 118.498 40.21 119.676 40.21C120.854 40.21 121.443 39.5073 121.443 38.102V33.855H119.738V30.755H124.667V37.854C124.667 39.6107 124.233 40.9643 123.365 41.915C122.497 42.845 121.236 43.31 119.583 43.31ZM126.856 21.3H131.909C133.666 21.3 134.947 21.7133 135.753 22.54C136.559 23.346 136.962 24.5963 136.962 26.291V27.624C136.962 29.8767 136.218 31.3027 134.73 31.902V31.964C135.557 32.212 136.135 32.7183 136.466 33.483C136.817 34.2477 136.993 35.2707 136.993 36.552V40.365C136.993 40.985 137.014 41.4913 137.055 41.884C137.096 42.256 137.2 42.628 137.365 43H133.893C133.769 42.6487 133.686 42.318 133.645 42.008C133.604 41.698 133.583 41.14 133.583 40.334V36.366C133.583 35.374 133.418 34.6817 133.087 34.289C132.777 33.8963 132.229 33.7 131.444 33.7H130.266V43H126.856V21.3ZM131.506 30.6C132.188 30.6 132.694 30.4243 133.025 30.073C133.376 29.7217 133.552 29.1327 133.552 28.306V26.632C133.552 25.8467 133.407 25.2783 133.118 24.927C132.849 24.5757 132.415 24.4 131.816 24.4H130.266V30.6H131.506ZM139.359 21.3H148.659V24.4H142.769V30.135H147.45V33.235H142.769V39.9H148.659V43H139.359V21.3ZM153.256 21.3H157.875L161.409 43H157.999L157.379 38.691V38.753H153.504L152.884 43H149.722L153.256 21.3ZM156.976 35.808L155.457 25.082H155.395L153.907 35.808H156.976ZM164.306 24.4H160.741V21.3H171.281V24.4H167.716V43H164.306V24.4ZM182.702 43.31C181.069 43.31 179.819 42.845 178.951 41.915C178.104 40.985 177.68 39.6727 177.68 37.978V26.322C177.68 24.6273 178.104 23.315 178.951 22.385C179.819 21.455 181.069 20.99 182.702 20.99C184.335 20.99 185.575 21.455 186.422 22.385C187.29 23.315 187.724 24.6273 187.724 26.322V28.616H184.5V26.105C184.5 24.7617 183.932 24.09 182.795 24.09C181.658 24.09 181.09 24.7617 181.09 26.105V38.226C181.09 39.5487 181.658 40.21 182.795 40.21C183.932 40.21 184.5 39.5487 184.5 38.226V34.909H187.724V37.978C187.724 39.6727 187.29 40.985 186.422 41.915C185.575 42.845 184.335 43.31 182.702 43.31ZM189.764 21.3H193.174V30.135H196.832V21.3H200.242V43H196.832V33.235H193.174V43H189.764V21.3ZM207.711 43.31C206.037 43.31 204.755 42.8347 203.867 41.884C202.978 40.9333 202.534 39.59 202.534 37.854V26.446C202.534 24.71 202.978 23.3667 203.867 22.416C204.755 21.4653 206.037 20.99 207.711 20.99C209.385 20.99 210.666 21.4653 211.555 22.416C212.443 23.3667 212.888 24.71 212.888 26.446V37.854C212.888 39.59 212.443 40.9333 211.555 41.884C210.666 42.8347 209.385 43.31 207.711 43.31ZM207.711 40.21C208.889 40.21 209.478 39.497 209.478 38.071V26.229C209.478 24.803 208.889 24.09 207.711 24.09C206.533 24.09 205.944 24.803 205.944 26.229V38.071C205.944 39.497 206.533 40.21 207.711 40.21ZM215.194 21.3H218.604V43H215.194V21.3ZM225.963 43.31C224.33 43.31 223.08 42.845 222.212 41.915C221.364 40.985 220.941 39.6727 220.941 37.978V26.322C220.941 24.6273 221.364 23.315 222.212 22.385C223.08 21.455 224.33 20.99 225.963 20.99C227.595 20.99 228.835 21.455 229.683 22.385C230.551 23.315 230.985 24.6273 230.985 26.322V28.616H227.761V26.105C227.761 24.7617 227.192 24.09 226.056 24.09C224.919 24.09 224.351 24.7617 224.351 26.105V38.226C224.351 39.5487 224.919 40.21 226.056 40.21C227.192 40.21 227.761 39.5487 227.761 38.226V34.909H230.985V37.978C230.985 39.6727 230.551 40.985 229.683 41.915C228.835 42.845 227.595 43.31 225.963 43.31ZM233.025 21.3H242.325V24.4H236.435V30.135H241.116V33.235H236.435V39.9H242.325V43H233.025V21.3ZM244.566 30.352V21.3H247.976V30.352L247.542 37.265H245L244.566 30.352ZM244.628 39.714H247.914V43H244.628V39.714Z" fill="white"/>
</svg>
