<svg width="375" height="102" viewBox="0 0 375 102" fill="none" xmlns="http://www.w3.org/2000/svg">
<path d="M316.517 78.8069L297.397 81.7484V73.6592L316.517 78.8069Z" fill="#D70808" stroke="white"/>
<path d="M-3.3772 53.8037L34.863 42.0374L45.8939 79.5423L67.2201 83.9546L13.5367 99.3978L20.8906 71.453L-3.3772 53.8037Z" fill="#D70808" stroke="white"/>
<path d="M356.963 100.869C356.375 99.1036 320.929 88.8572 303.28 83.9546L324.606 80.2777L337.843 41.302L373.877 53.8037L351.08 70.7176C353.286 81.5033 357.552 102.633 356.963 100.869Z" fill="#D70808" stroke="white"/>
<path d="M73.8387 81.7485L53.9832 78.8069L71.6325 74.3946L73.8387 81.7485Z" fill="#D70808" stroke="white"/>
<path d="M322.4 77.3362C197.09 43.8024 86.8306 63.3638 47.3647 77.3362L33.3923 24.3882C159.291 -17.9701 289.798 6.73892 339.314 24.3882L322.4 77.3362Z" fill="#D70808" stroke="white"/>
</svg>
