<svg width="375" height="102" viewBox="0 0 375 102" fill="none" xmlns="http://www.w3.org/2000/svg">
<path d="M316.517 78.8069L297.397 81.7484V73.6592L316.517 78.8069Z" fill="#D70808" stroke="white"/>
<path d="M-3.3772 53.8037L34.863 42.0374L45.8939 79.5423L67.2201 83.9546L13.5367 99.3978L20.8906 71.453L-3.3772 53.8037Z" fill="#D70808" stroke="white"/>
<path d="M356.963 100.869C356.375 99.1036 320.929 88.8572 303.28 83.9546L324.606 80.2777L337.843 41.302L373.877 53.8037L351.08 70.7176C353.286 81.5033 357.552 102.633 356.963 100.869Z" fill="#D70808" stroke="white"/>
<path d="M73.8387 81.7485L53.9832 78.8069L71.6325 74.3946L73.8387 81.7485Z" fill="#D70808" stroke="white"/>
<path d="M322.4 77.3362C197.09 43.8024 86.8306 63.3638 47.3647 77.3362L33.3923 24.3882C159.291 -17.9701 289.798 6.73892 339.314 24.3882L322.4 77.3362Z" fill="#D70808" stroke="white"/>
<path d="M111.181 43.31C109.528 43.31 108.267 42.845 107.399 41.915C106.531 40.9643 106.097 39.6107 106.097 37.854V26.446C106.097 24.6893 106.531 23.346 107.399 22.416C108.267 21.4653 109.528 20.99 111.181 20.99C112.835 20.99 114.095 21.4653 114.963 22.416C115.831 23.346 116.265 24.6893 116.265 26.446V28.306H113.041V26.229C113.041 24.803 112.452 24.09 111.274 24.09C110.096 24.09 109.507 24.803 109.507 26.229V38.102C109.507 39.5073 110.096 40.21 111.274 40.21C112.452 40.21 113.041 39.5073 113.041 38.102V33.855H111.336V30.755H116.265V37.854C116.265 39.6107 115.831 40.9643 114.963 41.915C114.095 42.845 112.835 43.31 111.181 43.31ZM118.455 21.3H123.508C125.264 21.3 126.546 21.7133 127.352 22.54C128.158 23.346 128.561 24.5963 128.561 26.291V27.624C128.561 29.8767 127.817 31.3027 126.329 31.902V31.964C127.155 32.212 127.734 32.7183 128.065 33.483C128.416 34.2477 128.592 35.2707 128.592 36.552V40.365C128.592 40.985 128.612 41.4913 128.654 41.884C128.695 42.256 128.798 42.628 128.964 43H125.492C125.368 42.6487 125.285 42.318 125.244 42.008C125.202 41.698 125.182 41.14 125.182 40.334V36.366C125.182 35.374 125.016 34.6817 124.686 34.289C124.376 33.8963 123.828 33.7 123.043 33.7H121.865V43H118.455V21.3ZM123.105 30.6C123.787 30.6 124.293 30.4243 124.624 30.073C124.975 29.7217 125.151 29.1327 125.151 28.306V26.632C125.151 25.8467 125.006 25.2783 124.717 24.927C124.448 24.5757 124.014 24.4 123.415 24.4H121.865V30.6H123.105ZM130.958 21.3H140.258V24.4H134.368V30.135H139.049V33.235H134.368V39.9H140.258V43H130.958V21.3ZM144.854 21.3H149.473L153.007 43H149.597L148.977 38.691V38.753H145.102L144.482 43H141.32L144.854 21.3ZM148.574 35.808L147.055 25.082H146.993L145.505 35.808H148.574ZM155.905 24.4H152.34V21.3H162.88V24.4H159.315V43H155.905V24.4ZM173.929 43.31C172.275 43.31 171.025 42.845 170.178 41.915C169.33 40.9643 168.907 39.6107 168.907 37.854V36.614H172.131V38.102C172.131 39.5073 172.72 40.21 173.898 40.21C174.476 40.21 174.91 40.0447 175.2 39.714C175.51 39.3627 175.665 38.8047 175.665 38.04C175.665 37.1307 175.458 36.335 175.045 35.653C174.631 34.9503 173.867 34.1133 172.751 33.142C171.345 31.902 170.364 30.786 169.806 29.794C169.248 28.7813 168.969 27.6447 168.969 26.384C168.969 24.6687 169.403 23.346 170.271 22.416C171.139 21.4653 172.399 20.99 174.053 20.99C175.685 20.99 176.915 21.4653 177.742 22.416C178.589 23.346 179.013 24.6893 179.013 26.446V27.345H175.789V26.229C175.789 25.485 175.644 24.9477 175.355 24.617C175.065 24.2657 174.642 24.09 174.084 24.09C172.947 24.09 172.379 24.7823 172.379 26.167C172.379 26.9523 172.585 27.686 172.999 28.368C173.433 29.05 174.208 29.8767 175.324 30.848C176.75 32.088 177.731 33.2143 178.269 34.227C178.806 35.2397 179.075 36.428 179.075 37.792C179.075 39.5693 178.63 40.9333 177.742 41.884C176.874 42.8347 175.603 43.31 173.929 43.31ZM185.99 43.31C184.336 43.31 183.076 42.845 182.208 41.915C181.34 40.9643 180.906 39.6107 180.906 37.854V21.3H184.316V38.102C184.316 38.846 184.46 39.3833 184.75 39.714C185.06 40.0447 185.494 40.21 186.052 40.21C186.61 40.21 187.033 40.0447 187.323 39.714C187.633 39.3833 187.788 38.846 187.788 38.102V21.3H191.074V37.854C191.074 39.6107 190.64 40.9643 189.772 41.915C188.904 42.845 187.643 43.31 185.99 43.31ZM198.307 43.31C196.675 43.31 195.424 42.845 194.556 41.915C193.709 40.985 193.285 39.6727 193.285 37.978V26.322C193.285 24.6273 193.709 23.315 194.556 22.385C195.424 21.455 196.675 20.99 198.307 20.99C199.94 20.99 201.18 21.455 202.027 22.385C202.895 23.315 203.329 24.6273 203.329 26.322V28.616H200.105V26.105C200.105 24.7617 199.537 24.09 198.4 24.09C197.264 24.09 196.695 24.7617 196.695 26.105V38.226C196.695 39.5487 197.264 40.21 198.4 40.21C199.537 40.21 200.105 39.5487 200.105 38.226V34.909H203.329V37.978C203.329 39.6727 202.895 40.985 202.027 41.915C201.18 42.845 199.94 43.31 198.307 43.31ZM210.235 43.31C208.603 43.31 207.352 42.845 206.484 41.915C205.637 40.985 205.213 39.6727 205.213 37.978V26.322C205.213 24.6273 205.637 23.315 206.484 22.385C207.352 21.455 208.603 20.99 210.235 20.99C211.868 20.99 213.108 21.455 213.955 22.385C214.823 23.315 215.257 24.6273 215.257 26.322V28.616H212.033V26.105C212.033 24.7617 211.465 24.09 210.328 24.09C209.192 24.09 208.623 24.7617 208.623 26.105V38.226C208.623 39.5487 209.192 40.21 210.328 40.21C211.465 40.21 212.033 39.5487 212.033 38.226V34.909H215.257V37.978C215.257 39.6727 214.823 40.985 213.955 41.915C213.108 42.845 211.868 43.31 210.235 43.31ZM217.297 21.3H226.597V24.4H220.707V30.135H225.388V33.235H220.707V39.9H226.597V43H217.297V21.3ZM233.053 43.31C231.399 43.31 230.149 42.845 229.302 41.915C228.454 40.9643 228.031 39.6107 228.031 37.854V36.614H231.255V38.102C231.255 39.5073 231.844 40.21 233.022 40.21C233.6 40.21 234.034 40.0447 234.324 39.714C234.634 39.3627 234.789 38.8047 234.789 38.04C234.789 37.1307 234.582 36.335 234.169 35.653C233.755 34.9503 232.991 34.1133 231.875 33.142C230.469 31.902 229.488 30.786 228.93 29.794C228.372 28.7813 228.093 27.6447 228.093 26.384C228.093 24.6687 228.527 23.346 229.395 22.416C230.263 21.4653 231.523 20.99 233.177 20.99C234.809 20.99 236.039 21.4653 236.866 22.416C237.713 23.346 238.137 24.6893 238.137 26.446V27.345H234.913V26.229C234.913 25.485 234.768 24.9477 234.479 24.617C234.189 24.2657 233.766 24.09 233.208 24.09C232.071 24.09 231.503 24.7823 231.503 26.167C231.503 26.9523 231.709 27.686 232.123 28.368C232.557 29.05 233.332 29.8767 234.448 30.848C235.874 32.088 236.855 33.2143 237.393 34.227C237.93 35.2397 238.199 36.428 238.199 37.792C238.199 39.5693 237.754 40.9333 236.866 41.884C235.998 42.8347 234.727 43.31 233.053 43.31ZM244.587 43.31C242.933 43.31 241.683 42.845 240.836 41.915C239.988 40.9643 239.565 39.6107 239.565 37.854V36.614H242.789V38.102C242.789 39.5073 243.378 40.21 244.556 40.21C245.134 40.21 245.568 40.0447 245.858 39.714C246.168 39.3627 246.323 38.8047 246.323 38.04C246.323 37.1307 246.116 36.335 245.703 35.653C245.289 34.9503 244.525 34.1133 243.409 33.142C242.003 31.902 241.022 30.786 240.464 29.794C239.906 28.7813 239.627 27.6447 239.627 26.384C239.627 24.6687 240.061 23.346 240.929 22.416C241.797 21.4653 243.057 20.99 244.711 20.99C246.343 20.99 247.573 21.4653 248.4 22.416C249.247 23.346 249.671 24.6893 249.671 26.446V27.345H246.447V26.229C246.447 25.485 246.302 24.9477 246.013 24.617C245.723 24.2657 245.3 24.09 244.742 24.09C243.605 24.09 243.037 24.7823 243.037 26.167C243.037 26.9523 243.243 27.686 243.657 28.368C244.091 29.05 244.866 29.8767 245.982 30.848C247.408 32.088 248.389 33.2143 248.927 34.227C249.464 35.2397 249.733 36.428 249.733 37.792C249.733 39.5693 249.288 40.9333 248.4 41.884C247.532 42.8347 246.261 43.31 244.587 43.31ZM251.967 30.352V21.3H255.377V30.352L254.943 37.265H252.401L251.967 30.352ZM252.029 39.714H255.315V43H252.029V39.714Z" fill="white"/>
</svg>

