<svg width="177" height="193" viewBox="0 0 177 193" fill="none" xmlns="http://www.w3.org/2000/svg">
<rect x="31.5" y="105.5" width="50" height="43" rx="14.5" stroke="black" stroke-width="3"/>
<circle cx="56" cy="87" r="13.5" stroke="black" stroke-width="3"/>
<rect x="97.5" y="105.5" width="50" height="43" rx="14.5" stroke="black" stroke-width="3"/>
<circle cx="122" cy="87" r="13.5" stroke="black" stroke-width="3"/>
<path d="M88.5 124.193C62.1216 108.961 39.5 114.783 26 126.283L30 161.783L88.5 160.783V124.193Z" fill="white" stroke="black" stroke-width="3"/>
<path d="M91 124.193C117.378 108.961 140 114.783 153.5 126.283L149.5 161.783L91 160.783V124.193Z" fill="white" stroke="black" stroke-width="3"/>
<path d="M175 186H2V125H19.5797C25.1026 125 29.5797 129.477 29.5797 135V161.846H148.423V135C148.423 129.477 152.9 125 158.423 125H175V186Z" fill="white" stroke="black" stroke-width="4"/>
<rect x="10" y="186" width="17" height="7" fill="black"/>
<rect x="147" y="186" width="17" height="7" fill="black"/>
<rect x="55" y="13.5226" width="67" height="46.4775" rx="11" fill="black"/>
<rect x="59.8289" y="18.955" width="51.3063" height="36.8198" rx="11" fill="white"/>
<circle cx="116.869" cy="21.6712" r="2.71622" fill="white"/>
<circle cx="116.869" cy="29.5181" r="2.71622" fill="white"/>
<line x1="84.1833" y1="15.5946" x2="75.7837" y2="4.86176" stroke="black" stroke-width="4" stroke-linecap="round"/>
<line x1="86.2281" y1="13.5852" x2="95.3071" y2="3.42057" stroke="black" stroke-width="4" stroke-linecap="round"/>
</svg>
